<svg width="908" height="221" viewBox="0 0 908 221" fill="none" xmlns="http://www.w3.org/2000/svg">
<rect x="252" width="656" height="221" fill="#2E4A70"/>
<path d="M371.727 120.3H369.027L348.127 69.7C346.927 66.9 345.96 64.4333 345.227 62.3L344.227 69.9L336.027 124H331.127L342.927 51.9H345.727L368.027 104.9C369.16 107.367 370.06 109.7 370.727 111.9C370.927 111.167 371.96 108.867 373.827 105L398.727 51.9H401.427L412.327 124H407.327L399.527 69.7C398.993 66.3 398.727 63.7333 398.727 62C398.66 62.0667 398.493 62.4 398.227 63C398.027 63.5333 397.627 64.4667 397.027 65.8C396.493 67.0667 395.927 68.4 395.327 69.8L371.727 120.3ZM433.97 101.5L424.67 124H419.97L447.17 58.7H449.87L477.27 124H472.17L462.77 101.5H433.97ZM448.27 66.1C447.27 69.1 446.37 71.6 445.57 73.6L435.57 97.6H461.17L451.27 73.7C449.736 69.9667 448.736 67.4333 448.27 66.1ZM490.438 124V59.4C496.171 58.9333 501.038 58.7 505.038 58.7C511.171 58.7 516.238 60.3 520.238 63.5C524.238 66.6333 526.238 71.1333 526.238 77C526.238 80.9333 525.104 84.5667 522.838 87.9C520.571 91.2333 518.004 93.9333 515.138 96C523.071 106.533 527.971 112.833 529.837 114.9C533.638 118.833 537.771 121.067 542.238 121.6L542.138 124.7C538.404 124.633 535.371 124.1 533.038 123.1C530.704 122.033 528.371 120.267 526.038 117.8C523.771 115.333 518.738 108.7 510.938 97.9C505.538 97.9 500.238 97.7333 495.038 97.4V124H490.438ZM508.438 94.1C511.038 94.1 513.838 92.3667 516.838 88.9C519.838 85.4333 521.338 81.4 521.338 76.8C521.338 72.2 519.771 68.7 516.638 66.3C513.504 63.9 509.438 62.7 504.438 62.7C501.771 62.7 498.638 62.8333 495.038 63.1V93.6C499.838 93.9333 504.304 94.1 508.438 94.1ZM551.277 124V59.1H581.577V63.1H555.877V86.7H579.077V90.6H555.877V119.8H582.577V124H551.277ZM576.377 48.6L561.777 53.9L558.377 52.9L575.777 43.3L576.377 48.6ZM642.02 99.2L631.72 124H626.62L656.72 52H659.52L689.72 124H684.32L674.02 99.2H642.02ZM657.82 60C657.753 60.0667 657.62 60.4667 657.42 61.2C656.486 64.0667 655.586 66.5 654.72 68.5L643.72 95.1H672.32L661.32 68.6C658.986 63.5333 657.82 60.6667 657.82 60ZM703.328 124V59.1H707.928V119.8H737.728V124H703.328ZM753.698 63.2H731.698V59.1H780.198V63.2H758.198V124H753.698V63.2ZM790.805 101.5L781.505 124H776.805L804.005 58.7H806.705L834.105 124H829.005L819.605 101.5H790.805ZM805.105 66.1C804.105 69.1 803.205 71.6 802.405 73.6L792.405 97.6H818.005L808.105 73.7C806.572 69.9667 805.572 67.4333 805.105 66.1Z" fill="#F0F2F2"/>
<path d="M327.793 170.72C325.793 171.84 323.006 172.4 319.433 172.4C315.886 172.4 312.753 171.12 310.033 168.56C307.34 166 305.993 162.827 305.993 159.04C305.993 155.227 307.166 152.04 309.513 149.48C311.886 146.92 314.94 145.64 318.673 145.64C321.686 145.64 324.633 146.107 327.513 147.04L327.033 148.56C324.26 147.707 321.393 147.28 318.433 147.28C315.473 147.28 312.98 148.413 310.953 150.68C308.953 152.92 307.953 155.68 307.953 158.96C307.953 162.213 309.113 164.987 311.433 167.28C313.78 169.573 316.486 170.72 319.553 170.72C322.62 170.72 325.166 170.293 327.193 169.44L327.793 170.72ZM345.44 172.4C341.733 172.4 338.627 171.107 336.12 168.52C333.613 165.933 332.36 162.773 332.36 159.04C332.36 155.28 333.613 152.107 336.12 149.52C338.627 146.933 341.733 145.64 345.44 145.64C349.147 145.64 352.253 146.933 354.76 149.52C357.267 152.107 358.52 155.28 358.52 159.04C358.52 162.773 357.267 165.933 354.76 168.52C352.253 171.107 349.147 172.4 345.44 172.4ZM345.44 147.28C342.24 147.28 339.573 148.413 337.44 150.68C335.333 152.947 334.28 155.733 334.28 159.04C334.28 162.32 335.333 165.093 337.44 167.36C339.573 169.6 342.24 170.72 345.44 170.72C348.667 170.72 351.333 169.6 353.44 167.36C355.547 165.093 356.6 162.32 356.6 159.04C356.6 155.733 355.547 152.947 353.44 150.68C351.333 148.413 348.667 147.28 345.44 147.28ZM366.538 172V145.88H367.418L384.458 165.48C385.072 166.173 385.632 166.867 386.138 167.56C386.672 168.227 386.952 168.573 386.978 168.6C386.925 167.96 386.898 166.707 386.898 164.84V146.04H388.738V172.16H387.858L370.498 152.24L368.298 149.56C368.352 150.093 368.378 151.347 368.378 153.32V172H366.538ZM403.575 147.16C402.135 147.16 400.962 147.507 400.055 148.2C399.148 148.893 398.695 149.867 398.695 151.12C398.695 152.56 399.295 153.853 400.495 155C401.348 155.827 402.442 156.707 403.775 157.64C405.135 158.547 406.068 159.2 406.575 159.6C407.082 160 407.695 160.547 408.415 161.24C409.722 162.547 410.375 164.053 410.375 165.76C410.375 167.973 409.628 169.653 408.135 170.8C406.668 171.92 404.602 172.48 401.935 172.48C399.295 172.48 397.082 171.787 395.295 170.4L396.255 169C398.068 170.227 399.988 170.84 402.015 170.84C404.042 170.84 405.615 170.413 406.735 169.56C407.882 168.707 408.455 167.507 408.455 165.96C408.455 164.627 407.882 163.4 406.735 162.28C405.935 161.48 404.855 160.613 403.495 159.68C402.162 158.747 401.228 158.08 400.695 157.68C400.162 157.253 399.535 156.693 398.815 156C397.455 154.64 396.775 153.067 396.775 151.28C396.775 149.493 397.402 148.093 398.655 147.08C399.935 146.067 401.695 145.56 403.935 145.56C406.175 145.56 408.188 146 409.975 146.88L409.295 148.36C407.642 147.56 405.735 147.16 403.575 147.16ZM436.229 169.32C434.469 171.373 431.789 172.4 428.189 172.4C424.589 172.4 421.909 171.373 420.149 169.32C418.389 167.267 417.509 164.427 417.509 160.8V146.04H419.349V160.8C419.349 167.44 422.296 170.76 428.189 170.76C434.083 170.76 437.029 167.44 437.029 160.8V146.04H438.869V160.8C438.869 164.427 437.989 167.267 436.229 169.32ZM448.218 172V146.04H450.058V170.32H461.978V172H448.218ZM468.366 147.68H459.566V146.04H478.966V147.68H470.166V172H468.366V147.68ZM494.971 172.4C491.265 172.4 488.158 171.107 485.651 168.52C483.145 165.933 481.891 162.773 481.891 159.04C481.891 155.28 483.145 152.107 485.651 149.52C488.158 146.933 491.265 145.64 494.971 145.64C498.678 145.64 501.785 146.933 504.291 149.52C506.798 152.107 508.051 155.28 508.051 159.04C508.051 162.773 506.798 165.933 504.291 168.52C501.785 171.107 498.678 172.4 494.971 172.4ZM494.971 147.28C491.771 147.28 489.105 148.413 486.971 150.68C484.865 152.947 483.811 155.733 483.811 159.04C483.811 162.32 484.865 165.093 486.971 167.36C489.105 169.6 491.771 170.72 494.971 170.72C498.198 170.72 500.865 169.6 502.971 167.36C505.078 165.093 506.131 162.32 506.131 159.04C506.131 155.733 505.078 152.947 502.971 150.68C500.865 148.413 498.198 147.28 494.971 147.28ZM500.491 141.84L494.651 143.96L493.291 143.56L500.251 139.72L500.491 141.84ZM516.07 172V146.16C518.363 145.973 520.31 145.88 521.91 145.88C524.363 145.88 526.39 146.52 527.99 147.8C529.59 149.053 530.39 150.853 530.39 153.2C530.39 154.773 529.936 156.227 529.03 157.56C528.123 158.893 527.096 159.973 525.95 160.8C529.123 165.013 531.083 167.533 531.83 168.36C533.35 169.933 535.003 170.827 536.79 171.04L536.75 172.28C535.256 172.253 534.043 172.04 533.11 171.64C532.176 171.213 531.243 170.507 530.31 169.52C529.403 168.533 527.39 165.88 524.27 161.56C522.11 161.56 519.99 161.493 517.91 161.36V172H516.07ZM523.27 160.04C524.31 160.04 525.43 159.347 526.63 157.96C527.83 156.573 528.43 154.96 528.43 153.12C528.43 151.28 527.803 149.88 526.55 148.92C525.296 147.96 523.67 147.48 521.67 147.48C520.603 147.48 519.35 147.533 517.91 147.64V159.84C519.83 159.973 521.616 160.04 523.27 160.04ZM540.405 172V146.04H542.245V172H540.405ZM563.331 172.4C559.624 172.4 556.517 171.107 554.011 168.52C551.504 165.933 550.251 162.773 550.251 159.04C550.251 155.28 551.504 152.107 554.011 149.52C556.517 146.933 559.624 145.64 563.331 145.64C567.037 145.64 570.144 146.933 572.651 149.52C575.157 152.107 576.411 155.28 576.411 159.04C576.411 162.773 575.157 165.933 572.651 168.52C570.144 171.107 567.037 172.4 563.331 172.4ZM563.331 147.28C560.131 147.28 557.464 148.413 555.331 150.68C553.224 152.947 552.171 155.733 552.171 159.04C552.171 162.32 553.224 165.093 555.331 167.36C557.464 169.6 560.131 170.72 563.331 170.72C566.557 170.72 569.224 169.6 571.331 167.36C573.437 165.093 574.491 162.32 574.491 159.04C574.491 155.733 573.437 152.947 571.331 150.68C569.224 148.413 566.557 147.28 563.331 147.28ZM599.323 172V143.56C601.536 143.347 603.683 143.24 605.763 143.24C608.563 143.24 610.803 143.893 612.483 145.2C614.19 146.507 615.043 148.48 615.043 151.12C615.043 153.733 613.883 155.893 611.563 157.6C609.27 159.28 606.523 160.12 603.323 160.12C603.19 160.12 603.043 160.12 602.883 160.12V158.8C602.99 158.8 603.083 158.8 603.163 158.8C605.803 158.8 608.096 158.107 610.043 156.72C611.99 155.333 612.963 153.533 612.963 151.32C612.963 149.08 612.283 147.467 610.923 146.48C609.563 145.467 607.736 144.96 605.443 144.96C604.243 144.96 602.843 145.013 601.243 145.12V172H599.323ZM627.325 147.16C625.885 147.16 624.712 147.507 623.805 148.2C622.898 148.893 622.445 149.867 622.445 151.12C622.445 152.56 623.045 153.853 624.245 155C625.098 155.827 626.192 156.707 627.525 157.64C628.885 158.547 629.818 159.2 630.325 159.6C630.832 160 631.445 160.547 632.165 161.24C633.472 162.547 634.125 164.053 634.125 165.76C634.125 167.973 633.378 169.653 631.885 170.8C630.418 171.92 628.352 172.48 625.685 172.48C623.045 172.48 620.832 171.787 619.045 170.4L620.005 169C621.818 170.227 623.738 170.84 625.765 170.84C627.792 170.84 629.365 170.413 630.485 169.56C631.632 168.707 632.205 167.507 632.205 165.96C632.205 164.627 631.632 163.4 630.485 162.28C629.685 161.48 628.605 160.613 627.245 159.68C625.912 158.747 624.978 158.08 624.445 157.68C623.912 157.253 623.285 156.693 622.565 156C621.205 154.64 620.525 153.067 620.525 151.28C620.525 149.493 621.152 148.093 622.405 147.08C623.685 146.067 625.445 145.56 627.685 145.56C629.925 145.56 631.938 146 633.725 146.88L633.045 148.36C631.392 147.56 629.485 147.16 627.325 147.16ZM641.499 172V146.04H643.339V172H641.499ZM673.145 170.72C671.145 171.84 668.358 172.4 664.785 172.4C661.238 172.4 658.105 171.12 655.385 168.56C652.691 166 651.345 162.827 651.345 159.04C651.345 155.227 652.518 152.04 654.865 149.48C657.238 146.92 660.291 145.64 664.025 145.64C667.038 145.64 669.985 146.107 672.865 147.04L672.385 148.56C669.611 147.707 666.745 147.28 663.785 147.28C660.825 147.28 658.331 148.413 656.305 150.68C654.305 152.92 653.305 155.68 653.305 158.96C653.305 162.213 654.465 164.987 656.785 167.28C659.131 169.573 661.838 170.72 664.905 170.72C667.971 170.72 670.518 170.293 672.545 169.44L673.145 170.72ZM690.792 172.4C687.085 172.4 683.978 171.107 681.472 168.52C678.965 165.933 677.712 162.773 677.712 159.04C677.712 155.28 678.965 152.107 681.472 149.52C683.978 146.933 687.085 145.64 690.792 145.64C694.498 145.64 697.605 146.933 700.112 149.52C702.618 152.107 703.872 155.28 703.872 159.04C703.872 162.773 702.618 165.933 700.112 168.52C697.605 171.107 694.498 172.4 690.792 172.4ZM690.792 147.28C687.592 147.28 684.925 148.413 682.792 150.68C680.685 152.947 679.632 155.733 679.632 159.04C679.632 162.32 680.685 165.093 682.792 167.36C684.925 169.6 687.592 170.72 690.792 170.72C694.018 170.72 696.685 169.6 698.792 167.36C700.898 165.093 701.952 162.32 701.952 159.04C701.952 155.733 700.898 152.947 698.792 150.68C696.685 148.413 694.018 147.28 690.792 147.28ZM711.89 172V146.04H713.73V170.32H725.65V172H711.89ZM740.987 172.4C737.28 172.4 734.174 171.107 731.667 168.52C729.16 165.933 727.907 162.773 727.907 159.04C727.907 155.28 729.16 152.107 731.667 149.52C734.174 146.933 737.28 145.64 740.987 145.64C744.694 145.64 747.8 146.933 750.307 149.52C752.814 152.107 754.067 155.28 754.067 159.04C754.067 162.773 752.814 165.933 750.307 168.52C747.8 171.107 744.694 172.4 740.987 172.4ZM740.987 147.28C737.787 147.28 735.12 148.413 732.987 150.68C730.88 152.947 729.827 155.733 729.827 159.04C729.827 162.32 730.88 165.093 732.987 167.36C735.12 169.6 737.787 170.72 740.987 170.72C744.214 170.72 746.88 169.6 748.987 167.36C751.094 165.093 752.147 162.32 752.147 159.04C752.147 155.733 751.094 152.947 748.987 150.68C746.88 148.413 744.214 147.28 740.987 147.28ZM746.507 141.84L740.667 143.96L739.307 143.56L746.267 139.72L746.507 141.84ZM772.925 147.28C769.965 147.28 767.472 148.413 765.445 150.68C763.445 152.92 762.445 155.68 762.445 158.96C762.445 162.24 763.578 165.027 765.845 167.32C768.112 169.587 770.778 170.72 773.845 170.72C776.938 170.72 779.338 170.36 781.045 169.64V158.96H782.885V170.48C780.805 171.76 777.858 172.4 774.045 172.4C770.232 172.4 767.018 171.107 764.405 168.52C761.792 165.933 760.485 162.76 760.485 159C760.485 155.213 761.658 152.04 764.005 149.48C766.378 146.92 769.432 145.64 773.165 145.64C776.178 145.64 779.125 146.107 782.005 147.04L781.525 148.56C778.752 147.707 775.885 147.28 772.925 147.28ZM791.616 172V146.04H793.456V172H791.616ZM823.262 170.72C821.262 171.84 818.475 172.4 814.902 172.4C811.355 172.4 808.222 171.12 805.502 168.56C802.808 166 801.462 162.827 801.462 159.04C801.462 155.227 802.635 152.04 804.982 149.48C807.355 146.92 810.408 145.64 814.142 145.64C817.155 145.64 820.102 146.107 822.982 147.04L822.502 148.56C819.728 147.707 816.862 147.28 813.902 147.28C810.942 147.28 808.448 148.413 806.422 150.68C804.422 152.92 803.422 155.68 803.422 158.96C803.422 162.213 804.582 164.987 806.902 167.28C809.248 169.573 811.955 170.72 815.022 170.72C818.088 170.72 820.635 170.293 822.662 169.44L823.262 170.72ZM840.909 172.4C837.202 172.4 834.096 171.107 831.589 168.52C829.082 165.933 827.829 162.773 827.829 159.04C827.829 155.28 829.082 152.107 831.589 149.52C834.096 146.933 837.202 145.64 840.909 145.64C844.616 145.64 847.722 146.933 850.229 149.52C852.736 152.107 853.989 155.28 853.989 159.04C853.989 162.773 852.736 165.933 850.229 168.52C847.722 171.107 844.616 172.4 840.909 172.4ZM840.909 147.28C837.709 147.28 835.042 148.413 832.909 150.68C830.802 152.947 829.749 155.733 829.749 159.04C829.749 162.32 830.802 165.093 832.909 167.36C835.042 169.6 837.709 170.72 840.909 170.72C844.136 170.72 846.802 169.6 848.909 167.36C851.016 165.093 852.069 162.32 852.069 159.04C852.069 155.733 851.016 152.947 848.909 150.68C846.802 148.413 844.136 147.28 840.909 147.28Z" fill="#F0F2F2"/>
<rect x="0.583984" width="251.852" height="221" fill="#F0F2F2"/>
<path fill-rule="evenodd" clip-rule="evenodd" d="M81.211 115.756C86.0583 95.3152 104.427 80.0881 126.318 80.0881C148.209 80.0881 166.578 95.3152 171.425 115.756H81.211ZM188.715 84.2268L176.884 91.069C174.318 92.5525 173.438 95.8419 174.92 98.4111C176.401 100.98 179.686 101.862 182.252 100.378L194.083 93.5361C196.649 92.0526 197.53 88.7632 196.048 86.194C194.566 83.6248 191.281 82.7433 188.715 84.2268ZM58.5528 93.5361L70.3838 100.378C72.9497 101.862 76.2349 100.98 77.7164 98.4111C79.198 95.8419 78.3176 92.5525 75.7517 91.069L63.9207 84.2268C61.3548 82.7433 58.0696 83.6248 56.5881 86.194C55.1065 88.7632 55.9869 92.0526 58.5528 93.5361ZM84.0936 64.0279L90.927 75.8742C92.4086 78.4434 95.6938 79.3249 98.2597 77.8414C100.826 76.3579 101.706 73.0685 100.224 70.4993L93.3909 58.6531C91.9093 56.0839 88.6241 55.2024 86.0583 56.6858C83.4924 58.1693 82.612 61.4587 84.0936 64.0279ZM159.245 58.6531L152.412 70.4993C150.93 73.0685 151.811 76.3579 154.376 77.8414C156.942 79.3249 160.228 78.4434 161.709 75.8742L168.543 64.0279C170.024 61.4587 169.144 58.1693 166.578 56.6858C164.012 55.2024 160.727 56.0839 159.245 58.6531ZM120.95 51.2572V64.9363C120.95 67.9032 123.355 70.3112 126.318 70.3112C129.281 70.3112 131.686 67.9032 131.686 64.9363V51.2572C131.686 48.2903 129.281 45.8823 126.318 45.8823C123.355 45.8823 120.95 48.2903 120.95 51.2572Z" fill="#CF8A40"/>
<path fill-rule="evenodd" clip-rule="evenodd" d="M78.136 174.88H94.2607C97.2276 174.88 99.6356 172.472 99.6356 169.505C99.6356 166.538 97.2276 164.13 94.2607 164.13H78.136C75.1691 164.13 72.7612 166.538 72.7612 169.505C72.7612 172.472 75.1691 174.88 78.136 174.88ZM115.76 174.88H174.884C177.851 174.88 180.259 172.472 180.259 169.505C180.259 166.538 177.851 164.13 174.884 164.13H115.76C112.793 164.13 110.385 166.538 110.385 169.505C110.385 172.472 112.793 174.88 115.76 174.88ZM158.759 153.38H185.634C188.601 153.38 191.009 150.972 191.009 148.005C191.009 145.038 188.601 142.63 185.634 142.63H158.759C155.792 142.63 153.384 145.038 153.384 148.005C153.384 150.972 155.792 153.38 158.759 153.38ZM67.3863 153.38H137.26C140.227 153.38 142.635 150.972 142.635 148.005C142.635 145.038 140.227 142.63 137.26 142.63H67.3863C64.4193 142.63 62.0114 145.038 62.0114 148.005C62.0114 150.972 64.4193 153.38 67.3863 153.38ZM51.2616 131.881H201.758C204.725 131.881 207.133 129.473 207.133 126.506C207.133 123.539 204.725 121.131 201.758 121.131H51.2616C48.2947 121.131 45.8867 123.539 45.8867 126.506C45.8867 129.473 48.2947 131.881 51.2616 131.881Z" fill="#2E4A70"/>
</svg>
